<?xml version="1.0" encoding="iso-8859-1"?>
<!-- Generator: Adobe Illustrator 19.0.0, SVG Export Plug-In . SVG Version: 6.00 Build 0)  -->
<svg version="1.1" id="Layer_1" xmlns="http://www.w3.org/2000/svg" xmlns:xlink="http://www.w3.org/1999/xlink" x="0px" y="0px"
	 viewBox="0 0 512 512" style="enable-background:new 0 0 512 512;" xml:space="preserve">
<g>
	<g>
		<g>
			<path d="M256.256,221.867h-0.085c-4.71,0-8.491,3.823-8.491,8.533s3.866,8.533,8.576,8.533c4.719,0,8.533-3.823,8.533-8.533
				S260.975,221.867,256.256,221.867z"/>
			<path d="M197.06,384.068c-4.625-0.418-8.815,3.004-9.293,7.671c-0.009,0.085-0.981,9.207-7.671,22.579
				c-5.939,11.878-26.317,12.348-26.496,12.348h-8.533c-107.827,0-126.985,71.68-127.744,74.726
				c-1.135,4.565,1.621,9.156,6.17,10.317c0.7,0.179,1.408,0.273,2.108,0.273c3.797,0,7.27-2.569,8.269-6.4
				c0.657-2.526,17.237-61.85,111.198-61.85h8.533c1.263,0,30.993-0.247,41.771-21.786c8.124-16.256,9.293-27.452,9.395-28.672
				C205.175,388.599,201.728,384.503,197.06,384.068z"/>
			<path d="M204.808,119.467c1.28,0,2.586-0.29,3.806-0.896c5.111-2.56,21.786-11.895,21.786-24.704c0-4.71-3.797-8.721-8.516-8.721
				c-4.71,0-8.508,3.627-8.508,8.346c-0.657,2.125-6.793,6.989-12.407,9.813c-4.198,2.116-5.905,7.245-3.789,11.452
				C198.681,117.743,201.685,119.467,204.808,119.467z"/>
			<path d="M303.385,118.571c1.22,0.606,2.526,0.896,3.806,0.896c3.123,0,6.135-1.724,7.629-4.71
				c2.116-4.207,0.41-9.336-3.797-11.452c-5.504-2.773-11.537-7.526-12.365-9.711c-0.145-4.582-3.9-8.26-8.525-8.26
				c-4.719,0-8.533,3.823-8.533,8.533C281.6,106.675,298.274,116.011,303.385,118.571z"/>
			<path d="M256,119.467c4.71,0,8.533-3.823,8.533-8.533V93.867c0-4.71-3.823-8.533-8.533-8.533s-8.533,3.823-8.533,8.533v17.067
				C247.466,115.644,251.289,119.467,256,119.467z"/>
			<path d="M366.933,426.667H358.4c-0.196,0-20.488-0.341-26.496-12.348c-6.69-13.372-7.663-22.494-7.671-22.528
				c-0.41-4.693-4.676-8.252-9.242-7.757c-4.693,0.41-8.166,4.548-7.757,9.242c0.111,1.22,1.271,12.416,9.395,28.672
				c10.769,21.538,40.516,21.786,41.771,21.786h8.533c108.484,0,110.882,57.182,110.933,59.793c0.034,4.685,3.84,8.474,8.533,8.474
				c4.719,0,8.533-3.823,8.533-8.533C494.933,500.326,493.474,426.667,366.933,426.667z"/>
			<path d="M391.825,243.26c11.998-6.076,26.308-19.55,26.308-38.46c0-18.637-13.901-31.991-25.779-38.187
				c-1.314-19.174-11.81-100.173-94.925-113.502c-5.026-0.998-15.829-4.753-15.829-18.978c0-15.582,13.107-17.007,17.126-17.067
				c4.693-0.034,8.474-3.84,8.474-8.533c0-4.71-3.814-8.533-8.533-8.533c-13.713,0-34.133,9.088-34.133,34.133
				c0,6.801,1.459,12.424,3.806,17.067h-13.534c-3.038-12.339-12.74-25.6-32.939-25.6c-4.71,0-8.533,3.823-8.533,8.533
				c0,4.71,3.823,8.533,8.533,8.533c8.823,0,13.022,4.215,15.095,8.585c-103.706,1.195-115.9,94.583-117.308,115.362
				c-11.895,6.195-25.788,19.55-25.788,38.187c0,18.91,14.31,32.384,26.308,38.46C137.6,326.11,188.219,375.467,256,375.467
				S374.408,326.11,391.825,243.26z M256,358.4c-59.529,0-104.141-44.962-119.467-120.32v-0.717c0-3.601-2.27-6.818-5.675-8.03
				c-6.494-2.321-19.925-11.366-19.925-24.533s13.432-22.212,19.925-24.533c3.405-1.212,5.675-4.429,5.675-8.03v-1.57
				c0-4.181,1.161-102.4,102.4-102.4h34.133c100.898,0,102.383,98.236,102.4,102.4v1.57c0,3.601,2.27,6.818,5.666,8.03
				c6.511,2.321,19.934,11.366,19.934,24.533s-13.423,22.212-19.934,24.533c-3.396,1.212-5.666,4.429-5.666,8.03v0.717
				C360.14,313.438,315.528,358.4,256,358.4z"/>
			<path d="M213.333,187.733c6.869,0,8.431,4.693,8.533,8.533c0,4.71,3.823,8.533,8.533,8.533s8.533-3.823,8.533-8.533
				c0-10.291-6.818-25.6-25.6-25.6s-25.6,15.309-25.6,25.6c0,4.668,3.755,8.414,8.422,8.474c4.787,0,8.525-3.712,8.644-8.371
				C204.902,192.427,206.464,187.733,213.333,187.733z"/>
			<path d="M298.666,170.667c-18.782,0-25.6,15.309-25.6,25.6c0,4.668,3.755,8.414,8.422,8.474h0.111
				c4.625,0,8.414-3.738,8.533-8.371c0.102-3.942,1.655-8.636,8.533-8.636s8.431,4.693,8.533,8.533c0,4.71,3.814,8.533,8.533,8.533
				s8.533-3.823,8.533-8.533C324.266,185.975,317.448,170.667,298.666,170.667z"/>
			<path d="M298.666,256h-85.333c-2.56,0-4.975,1.143-6.596,3.123s-2.278,4.574-1.766,7.083c3.422,17.135,18.5,49.527,51.029,49.527
				c32.538,0,47.607-32.393,51.029-49.527c0.503-2.509-0.145-5.103-1.766-7.083S301.226,256,298.666,256z M256,298.667
				c-17.604,0-26.795-15.002-31.087-25.6h62.114C282.692,283.648,273.459,298.667,256,298.667z"/>
		</g>
	</g>
</g>
<g>
</g>
<g>
</g>
<g>
</g>
<g>
</g>
<g>
</g>
<g>
</g>
<g>
</g>
<g>
</g>
<g>
</g>
<g>
</g>
<g>
</g>
<g>
</g>
<g>
</g>
<g>
</g>
<g>
</g>
</svg>
